<svg xmlns="http://www.w3.org/2000/svg" viewBox="0 0 240 200" fill="none">
  <!-- Letter C -->
  <path d="M104 70
           C104 58 95 50 80 50
           L62 50
           C40 50 26 66 26 92
           C26 118 40 134 62 134
           L80 134
           C95 134 104 126 104 114
           L104 108
           L78 108
           C72 108 68 104 68 96
           L68 88
           C68 80 72 76 78 76
           L104 76
           Z"
        fill="#4FC3F7"/>
  <!-- Letter T -->
  <path d="M96 50 L196 50 L176 76 L150 76 L150 134 L122 134 L122 76 L96 76 Z"
        fill="#4FC3F7"/>
  <!-- Lightning bolt overlay -->
  <path d="M138 8 L96 92 L122 92 L92 192 L168 84 L138 84 Z"
        fill="#4FC3F7" stroke="#ffffff" stroke-width="4" stroke-linejoin="round"/>
</svg>
